Motion_kv06_l
version=1
nRows=5
nColumns=43
inDegrees=yes
endheader
time	pelvis_tilt	pelvis_list	pelvis_rotation	pelvis_tx	pelvis_ty	pelvis_tz	hip_flexion_r	hip_adduction_r	hip_rotation_r	knee_angle_r	ankle_angle_r	subtalar_angle_r	mtp_angle_r	hip_flexion_l	hip_adduction_l	hip_rotation_l	knee_angle_l	ankle_angle_l	subtalar_angle_l	mtp_angle_l	lumbar_extension	lumbar_bending	lumbar_rotation	neck_flexion	neck_lateral_bending	neck_rotation	arm_flex_r	arm_add_r	arm_rot_r	elbow_flex_r	pro_sup_r	wrist_flex_r	wrist_dev_r	hand_finger_flex_r	arm_flex_l	arm_add_l	arm_rot_l	elbow_flex_l	pro_sup_l	wrist_flex_l	wrist_dev_l	hand_finger_flex_l
      1.35500000	      6.79009020	      4.03285728	     89.32054097	     -0.00083529	      0.37907515	      0.39871996	     90.99236910	    -17.38978165	     -3.60740689	   -144.64362041	     41.13708876	     17.59809059	     -0.29328894	     99.17407360	    -12.22845086	     13.54911260	   -143.16939330	     46.06700933	      9.63404806	    -12.77504979	    -62.58149055	      3.86729404	      9.35108766	     21.92205918	     -0.87813045	      2.95795888	    472.92369047	    -43.81458703	    412.20022442	     76.69446676	    108.38964117	    -58.51081704	    -24.99999983	     22.04345411	    122.54989837	    -33.91427654	     64.40001315	     72.10539367	     95.09858282	    -49.22498408	    -15.58697671	     90.00021046
      1.35750000	      6.72510675	      3.98771640	     89.40494686	     -0.00055688	      0.38036988	      0.39833536	     90.79088472	    -17.41026249	     -3.78928256	   -144.53770610	     41.26059152	     17.06107933	     -0.13145751	     98.98460914	    -12.23141905	     13.51021322	   -143.01142659	     46.03489133	      9.82095691	    -12.66458084	    -62.59268579	      3.79740139	      9.21300470	     21.95250810	     -0.84072538	      2.96944226	    472.97526698	    -43.77406120	    412.27982979	     76.93796441	    107.65267599	    -58.25248309	    -24.99999983	     21.90704242	    123.09994963	    -33.74225953	     64.93685285	     71.97951370	     95.66939454	    -48.89295018	    -15.79880923	     90.00021046
      1.36000000	      6.70866978	      3.84608491	     89.44310690	     -0.00041279	      0.38161147	      0.39785762	     90.67874645	    -17.41267700	     -3.86752484	   -144.38279010	     41.22283906	     17.06634760	     -0.12197867	     98.92469508	    -12.28636223	     13.46089287	   -142.89365620	     46.01496852	      9.84583370	    -12.65652669	    -62.48769396	      3.76271900	      9.14250408	     21.91433720	     -0.85009782	      2.97446865	    472.98832311	    -43.68387159	    412.31915786	     77.03104443	    107.62276350	    -58.22962004	    -24.99999983	     21.89475706	    123.20893035	    -33.59215799	     64.91165852	     72.06833072	     95.69628629	    -48.88128555	    -15.81729993	     90.00021046
      1.36250000	      6.67837773	      3.70749780	     89.48175470	     -0.00025461	      0.38285552	      0.39736183	     90.56887725	    -17.40704833	     -3.93674991	   -144.23597943	     41.20537840	     17.06045729	     -0.11157373	     98.84258853	    -12.32016835	     13.42556761	   -142.75476105	     45.98965228	      9.87528517	    -12.64992673	    -62.37350838	      3.73243217	      9.07923117	     21.87965481	     -0.87666530	      2.98014613	    472.98331570	    -43.58927719	    412.37089954	     77.14525940	    107.59120043	    -58.20456578	    -24.99999983	     21.88547450	    123.30524984	    -33.44930033	     64.93645458	     72.14615545	     95.74514669	    -48.85611702	    -15.84202884	     90.00021046
      1.36500000	      6.64964181	      3.55231970	     89.52183308	     -0.00012603	      0.38431778	      0.39696275	     90.45391924	    -17.40241322	     -4.02066652	   -144.05287846	     41.20304366	     17.04059056	     -0.09462144	     98.74325644	    -12.35474594	     13.36522271	   -142.57204940	     45.95594664	      9.92529088	    -12.64025225	    -62.25600545	      3.70051133	      9.00068820	     21.82735695	     -0.91984010	      2.98566455	    472.97570362	    -43.53023784	    412.41797198	     77.27799474	    107.53345174	    -58.17037118	    -24.99999983	     21.87470889	    123.43452308	    -33.33406152	     65.00379412	     72.21915074	     95.83773379	    -48.81002475	    -15.88137643	     90.00021046
